<svg width="360" height="75" viewBox="0 0 360 75" fill="none" xmlns="http://www.w3.org/2000/svg">
<path d="M0 10C0 4.47715 4.47715 0 10 0H350C355.523 0 360 4.47715 360 10V65C360 70.5229 355.523 75 350 75H10C4.47716 75 0 70.5229 0 65V10Z" fill="#710707"/>
<path d="M70.7881 45V29.3594H75.1172C76.3275 29.3594 77.4232 29.6458 78.4043 30.2188C79.3854 30.7917 80.1553 31.5973 80.7139 32.6357C81.2725 33.667 81.5589 34.8236 81.5732 36.1055V38.1357C81.5732 39.4391 81.2975 40.6136 80.7461 41.6592C80.2018 42.7048 79.4391 43.5212 78.458 44.1084C77.4769 44.6956 76.3812 44.9928 75.1709 45H70.7881ZM71.3682 29.9395V44.4199H75.1172C76.2129 44.4199 77.2083 44.1549 78.1035 43.625C79.0059 43.0879 79.7113 42.3431 80.2197 41.3906C80.7282 40.431 80.986 39.3675 80.9932 38.2002V36.1914C80.9932 35.0241 80.7425 33.9642 80.2412 33.0117C79.7471 32.0592 79.0524 31.3145 78.1572 30.7773C77.2692 30.2331 76.2845 29.9538 75.2031 29.9395H71.3682ZM87.6016 45H87.0215V33.377H87.6016V45ZM86.7207 29.7461C86.7207 29.5814 86.778 29.4417 86.8926 29.3271C87.0072 29.2054 87.1468 29.1445 87.3115 29.1445C87.4762 29.1445 87.6159 29.2054 87.7305 29.3271C87.8522 29.4417 87.9131 29.5814 87.9131 29.7461C87.9131 29.9108 87.8522 30.0505 87.7305 30.165C87.6159 30.2796 87.4762 30.3369 87.3115 30.3369C87.1468 30.3369 87.0072 30.2796 86.8926 30.165C86.778 30.0505 86.7207 29.9108 86.7207 29.7461ZM100.58 42.1533C100.58 40.7425 99.377 39.7829 96.9707 39.2744C95.5241 38.9665 94.5179 38.5726 93.9521 38.0928C93.3864 37.6058 93.1035 36.9398 93.1035 36.0947C93.1035 35.2425 93.4616 34.5407 94.1777 33.9893C94.901 33.4378 95.8392 33.1621 96.9922 33.1621C98.2454 33.1621 99.2516 33.4629 100.011 34.0645C100.77 34.6589 101.149 35.4645 101.149 36.4814H100.559C100.559 35.7008 100.229 35.0492 99.5703 34.5264C98.9115 34.0036 98.0521 33.7422 96.9922 33.7422C95.9753 33.7422 95.1696 33.9642 94.5752 34.4082C93.9808 34.8522 93.6836 35.4072 93.6836 36.0732C93.6836 36.596 93.7946 37.0078 94.0166 37.3086C94.2386 37.6022 94.6003 37.8708 95.1016 38.1143C95.6029 38.3506 96.3333 38.5798 97.293 38.8018C98.2526 39.0238 99.0117 39.2852 99.5703 39.5859C100.129 39.8867 100.534 40.2448 100.784 40.6602C101.035 41.0684 101.16 41.5697 101.16 42.1641C101.16 43.0807 100.784 43.8184 100.032 44.377C99.2803 44.9355 98.2956 45.2148 97.0781 45.2148C95.7747 45.2148 94.722 44.9212 93.9199 44.334C93.125 43.7396 92.7275 42.9769 92.7275 42.0459H93.3076C93.3649 42.8623 93.723 43.4997 94.3818 43.958C95.0479 44.4092 95.9466 44.6348 97.0781 44.6348C98.1165 44.6348 98.958 44.3949 99.6025 43.915C100.254 43.4281 100.58 42.8408 100.58 42.1533ZM110.314 44.6348C111.367 44.6348 112.234 44.3555 112.914 43.7969C113.602 43.2383 113.978 42.4648 114.042 41.4766H114.622C114.565 42.6009 114.132 43.5068 113.322 44.1943C112.513 44.8747 111.51 45.2148 110.314 45.2148C108.861 45.2148 107.704 44.6885 106.845 43.6357C105.993 42.583 105.566 41.1543 105.566 39.3496V38.9629C105.566 37.2012 105.993 35.7939 106.845 34.7412C107.704 33.6885 108.854 33.1621 110.293 33.1621C111.525 33.1621 112.542 33.5309 113.344 34.2686C114.146 35.0062 114.572 35.9873 114.622 37.2119H114.042C113.992 36.1663 113.623 35.3285 112.936 34.6982C112.255 34.0609 111.374 33.7422 110.293 33.7422C108.997 33.7422 107.98 34.2113 107.242 35.1494C106.512 36.0804 106.146 37.3766 106.146 39.0381V39.4141C106.146 41.0397 106.515 42.318 107.253 43.249C107.998 44.1729 109.018 44.6348 110.314 44.6348ZM118.663 38.9629C118.663 37.8529 118.874 36.8574 119.297 35.9766C119.727 35.0885 120.328 34.3975 121.102 33.9033C121.882 33.4092 122.763 33.1621 123.744 33.1621C124.718 33.1621 125.592 33.402 126.365 33.8818C127.139 34.3617 127.74 35.042 128.17 35.9229C128.607 36.8037 128.829 37.7956 128.836 38.8984V39.4141C128.836 40.5312 128.625 41.5303 128.202 42.4111C127.78 43.292 127.178 43.9795 126.397 44.4736C125.624 44.9678 124.747 45.2148 123.766 45.2148C122.785 45.2148 121.904 44.9714 121.123 44.4844C120.35 43.9974 119.748 43.3171 119.318 42.4434C118.889 41.5625 118.67 40.5742 118.663 39.4785V38.9629ZM119.243 39.4141C119.243 40.3809 119.433 41.2689 119.812 42.0781C120.199 42.8802 120.733 43.5068 121.413 43.958C122.101 44.4092 122.885 44.6348 123.766 44.6348C125.09 44.6348 126.168 44.137 126.999 43.1416C127.837 42.1462 128.256 40.8643 128.256 39.2959V38.9629C128.256 38.0104 128.062 37.1296 127.676 36.3203C127.289 35.5111 126.752 34.8809 126.064 34.4297C125.384 33.9714 124.611 33.7422 123.744 33.7422C122.419 33.7422 121.338 34.2471 120.5 35.2568C119.662 36.2666 119.243 37.5378 119.243 39.0703V39.4141ZM136.905 44.0762L141.084 33.377H141.707L137.185 45H136.615L132.104 33.377H132.727L136.905 44.0762ZM150.023 45.2148C149.085 45.2148 148.222 44.9642 147.435 44.4629C146.654 43.9544 146.042 43.2598 145.598 42.3789C145.154 41.498 144.932 40.5205 144.932 39.4463V38.9629C144.932 37.8887 145.146 36.904 145.576 36.0088C146.006 35.1136 146.597 34.4154 147.349 33.9141C148.101 33.4128 148.921 33.1621 149.809 33.1621C151.105 33.1621 152.165 33.624 152.988 34.5479C153.812 35.4717 154.224 36.6855 154.224 38.1895V38.8018H145.512V39.4355C145.512 40.3809 145.709 41.2581 146.103 42.0674C146.504 42.8695 147.051 43.4997 147.746 43.958C148.448 44.4163 149.207 44.6455 150.023 44.6455C150.804 44.6455 151.466 44.5166 152.011 44.2588C152.562 43.9938 153.049 43.5892 153.472 43.0449L153.88 43.335C153.013 44.5882 151.728 45.2148 150.023 45.2148ZM149.809 33.7422C148.677 33.7422 147.717 34.1647 146.93 35.0098C146.142 35.8477 145.68 36.9183 145.544 38.2217H153.644V38.082C153.644 37.2943 153.475 36.5638 153.139 35.8906C152.809 35.2103 152.351 34.6839 151.764 34.3115C151.184 33.932 150.532 33.7422 149.809 33.7422ZM164.055 33.7959L163.303 33.7314C162.314 33.7314 161.487 34.0537 160.821 34.6982C160.155 35.3356 159.718 36.2308 159.511 37.3838V45H158.931V33.377H159.511V35.7939C159.826 34.9847 160.299 34.3438 160.929 33.8711C161.559 33.3984 162.35 33.1621 163.303 33.1621C163.639 33.1621 163.911 33.2015 164.119 33.2803L164.055 33.7959ZM176.863 30.2402V33.377H179.506V33.9678H176.863V42.2178C176.863 43.0413 176.996 43.6501 177.261 44.0439C177.533 44.4378 177.984 44.6348 178.614 44.6348C178.929 44.6348 179.312 44.6025 179.764 44.5381L179.86 45.0859C179.624 45.1719 179.219 45.2148 178.646 45.2148C177.801 45.2148 177.196 44.9821 176.831 44.5166C176.466 44.0439 176.28 43.3027 176.272 42.293V33.9678H174.124V33.377H176.272V30.2402H176.863ZM185.104 36.084C185.484 35.1816 186.043 34.4691 186.78 33.9463C187.518 33.4235 188.334 33.1621 189.229 33.1621C190.476 33.1621 191.399 33.5166 192.001 34.2256C192.61 34.9274 192.918 35.9909 192.925 37.416V45H192.345V37.3945C192.338 36.1484 192.083 35.2282 191.582 34.6338C191.081 34.0322 190.286 33.7314 189.197 33.7314C188.195 33.7314 187.325 34.0895 186.587 34.8057C185.856 35.5146 185.362 36.4313 185.104 37.5557V45H184.524V28.5H185.104V36.084ZM202.756 45.2148C201.818 45.2148 200.955 44.9642 200.167 44.4629C199.386 43.9544 198.774 43.2598 198.33 42.3789C197.886 41.498 197.664 40.5205 197.664 39.4463V38.9629C197.664 37.8887 197.879 36.904 198.309 36.0088C198.738 35.1136 199.329 34.4154 200.081 33.9141C200.833 33.4128 201.653 33.1621 202.541 33.1621C203.837 33.1621 204.897 33.624 205.721 34.5479C206.544 35.4717 206.956 36.6855 206.956 38.1895V38.8018H198.244V39.4355C198.244 40.3809 198.441 41.2581 198.835 42.0674C199.236 42.8695 199.784 43.4997 200.479 43.958C201.18 44.4163 201.939 44.6455 202.756 44.6455C203.536 44.6455 204.199 44.5166 204.743 44.2588C205.295 43.9938 205.782 43.5892 206.204 43.0449L206.612 43.335C205.746 44.5882 204.46 45.2148 202.756 45.2148ZM202.541 33.7422C201.41 33.7422 200.45 34.1647 199.662 35.0098C198.874 35.8477 198.412 36.9183 198.276 38.2217H206.376V38.082C206.376 37.2943 206.208 36.5638 205.871 35.8906C205.542 35.2103 205.083 34.6839 204.496 34.3115C203.916 33.932 203.264 33.7422 202.541 33.7422ZM219.818 44.4199H227.843V45H219.228V29.3594H219.818V44.4199ZM231.411 38.9629C231.411 37.8529 231.622 36.8574 232.045 35.9766C232.475 35.0885 233.076 34.3975 233.85 33.9033C234.63 33.4092 235.511 33.1621 236.492 33.1621C237.466 33.1621 238.34 33.402 239.113 33.8818C239.887 34.3617 240.488 35.042 240.918 35.9229C241.355 36.8037 241.577 37.7956 241.584 38.8984V39.4141C241.584 40.5312 241.373 41.5303 240.95 42.4111C240.528 43.292 239.926 43.9795 239.146 44.4736C238.372 44.9678 237.495 45.2148 236.514 45.2148C235.533 45.2148 234.652 44.9714 233.871 44.4844C233.098 43.9974 232.496 43.3171 232.066 42.4434C231.637 41.5625 231.418 40.5742 231.411 39.4785V38.9629ZM231.991 39.4141C231.991 40.3809 232.181 41.2689 232.561 42.0781C232.947 42.8802 233.481 43.5068 234.161 43.958C234.849 44.4092 235.633 44.6348 236.514 44.6348C237.839 44.6348 238.916 44.137 239.747 43.1416C240.585 42.1462 241.004 40.8643 241.004 39.2959V38.9629C241.004 38.0104 240.811 37.1296 240.424 36.3203C240.037 35.5111 239.5 34.8809 238.812 34.4297C238.132 33.9714 237.359 33.7422 236.492 33.7422C235.167 33.7422 234.086 34.2471 233.248 35.2568C232.41 36.2666 231.991 37.5378 231.991 39.0703V39.4141ZM254.197 45V43.1201C253.854 43.7646 253.352 44.2767 252.693 44.6562C252.035 45.0286 251.2 45.2148 250.19 45.2148C248.923 45.2148 247.97 44.846 247.333 44.1084C246.703 43.3636 246.381 42.2822 246.366 40.8643V33.377H246.946V40.8857C246.961 42.1175 247.24 43.0521 247.784 43.6895C248.328 44.3197 249.123 44.6348 250.169 44.6348C251.279 44.6348 252.181 44.3734 252.876 43.8506C253.571 43.3278 254.011 42.5615 254.197 41.5518V33.377H254.788V45H254.197ZM263.878 44.0762L268.057 33.377H268.68L264.157 45H263.588L259.076 33.377H259.699L263.878 44.0762ZM278.092 33.7959L277.34 33.7314C276.352 33.7314 275.524 34.0537 274.858 34.6982C274.192 35.3356 273.756 36.2308 273.548 37.3838V45H272.968V33.377H273.548V35.7939C273.863 34.9847 274.336 34.3438 274.966 33.8711C275.596 33.3984 276.387 33.1621 277.34 33.1621C277.676 33.1621 277.949 33.2015 278.156 33.2803L278.092 33.7959ZM286.301 45.2148C285.363 45.2148 284.5 44.9642 283.712 44.4629C282.931 43.9544 282.319 43.2598 281.875 42.3789C281.431 41.498 281.209 40.5205 281.209 39.4463V38.9629C281.209 37.8887 281.424 36.904 281.854 36.0088C282.283 35.1136 282.874 34.4154 283.626 33.9141C284.378 33.4128 285.198 33.1621 286.086 33.1621C287.382 33.1621 288.442 33.624 289.266 34.5479C290.089 35.4717 290.501 36.6855 290.501 38.1895V38.8018H281.789V39.4355C281.789 40.3809 281.986 41.2581 282.38 42.0674C282.781 42.8695 283.329 43.4997 284.023 43.958C284.725 44.4163 285.484 44.6455 286.301 44.6455C287.081 44.6455 287.744 44.5166 288.288 44.2588C288.84 43.9938 289.326 43.5892 289.749 43.0449L290.157 43.335C289.291 44.5882 288.005 45.2148 286.301 45.2148ZM286.086 33.7422C284.954 33.7422 283.995 34.1647 283.207 35.0098C282.419 35.8477 281.957 36.9183 281.821 38.2217H289.921V38.082C289.921 37.2943 289.753 36.5638 289.416 35.8906C289.087 35.2103 288.628 34.6839 288.041 34.3115C287.461 33.932 286.809 33.7422 286.086 33.7422Z" fill="white"/>
</svg>
